<svg width="600" height="420" viewBox="0 0 600 420" fill="none" xmlns="http://www.w3.org/2000/svg">
  <defs>
    <linearGradient id="paint0_linear" x1="62" y1="10" x2="536" y2="410" gradientUnits="userSpaceOnUse">
      <stop stop-color="#7B6CFF" />
      <stop offset="1" stop-color="#4A3CFF" />
    </linearGradient>
    <linearGradient id="paint1_linear" x1="80" y1="94" x2="392" y2="332" gradientUnits="userSpaceOnUse">
      <stop stop-color="#FFFFFF" stop-opacity="0.96" />
      <stop offset="1" stop-color="#E6E9FF" stop-opacity="0.96" />
    </linearGradient>
    <linearGradient id="paint2_linear" x1="128" y1="142" x2="342" y2="290" gradientUnits="userSpaceOnUse">
      <stop stop-color="#8C7BFF" />
      <stop offset="1" stop-color="#5D4FFF" />
    </linearGradient>
    <linearGradient id="paint3_linear" x1="312" y1="136" x2="492" y2="284" gradientUnits="userSpaceOnUse">
      <stop stop-color="#FFD27F" />
      <stop offset="1" stop-color="#FF9F5A" />
    </linearGradient>
    <linearGradient id="paint4_linear" x1="184" y1="268" x2="410" y2="362" gradientUnits="userSpaceOnUse">
      <stop stop-color="#3CE8C4" />
      <stop offset="1" stop-color="#1EB5FF" />
    </linearGradient>
    <linearGradient id="paint5_linear" x1="132" y1="76" x2="468" y2="160" gradientUnits="userSpaceOnUse">
      <stop stop-color="#FFFFFF" stop-opacity="0.9" />
      <stop offset="1" stop-color="#DDE2FF" stop-opacity="0.9" />
    </linearGradient>
    <linearGradient id="paint6_linear" x1="468" y1="64" x2="552" y2="136" gradientUnits="userSpaceOnUse">
      <stop stop-color="#FFFFFF" stop-opacity="0.86" />
      <stop offset="1" stop-color="#C7D0FF" stop-opacity="0.82" />
    </linearGradient>
    <filter id="shadow" x="40" y="40" width="520" height="340" filterUnits="userSpaceOnUse" color-interpolation-filters="sRGB">
      <feDropShadow dx="0" dy="24" stdDeviation="40" flood-color="#3A3CF5" flood-opacity="0.25" />
    </filter>
  </defs>
  <rect x="18" y="12" width="564" height="396" rx="44" fill="url(#paint0_linear)" opacity="0.28" />
  <rect x="40" y="32" width="520" height="356" rx="44" fill="url(#paint0_linear)" filter="url(#shadow)" opacity="0.85" />
  <rect x="72" y="72" width="456" height="296" rx="36" fill="url(#paint1_linear)" />
  <rect x="112" y="120" width="236" height="168" rx="24" fill="url(#paint2_linear)" opacity="0.92" />
  <rect x="328" y="128" width="144" height="156" rx="24" fill="url(#paint3_linear)" opacity="0.92" />
  <rect x="184" y="260" width="264" height="74" rx="20" fill="url(#paint4_linear)" opacity="0.92" />
  <rect x="132" y="96" width="336" height="60" rx="18" fill="url(#paint5_linear)" />
  <rect x="140" y="108" width="52" height="16" rx="8" fill="#7768FF" opacity="0.65" />
  <rect x="196" y="108" width="92" height="16" rx="8" fill="#7768FF" opacity="0.35" />
  <rect x="292" y="108" width="68" height="16" rx="8" fill="#7768FF" opacity="0.2" />
  <rect x="144" y="142" width="184" height="24" rx="12" fill="#FFFFFF" opacity="0.9" />
  <rect x="144" y="178" width="168" height="18" rx="9" fill="#FFFFFF" opacity="0.7" />
  <rect x="144" y="204" width="136" height="18" rx="9" fill="#FFFFFF" opacity="0.65" />
  <rect x="340" y="148" width="120" height="22" rx="11" fill="#FFFAEB" opacity="0.9" />
  <rect x="340" y="180" width="104" height="18" rx="9" fill="#FFF2E0" opacity="0.75" />
  <rect x="340" y="208" width="76" height="18" rx="9" fill="#FFE4CF" opacity="0.7" />
  <rect x="200" y="276" width="112" height="18" rx="9" fill="#FFFFFF" opacity="0.92" />
  <rect x="200" y="304" width="88" height="18" rx="9" fill="#FFFFFF" opacity="0.8" />
  <rect x="304" y="276" width="126" height="18" rx="9" fill="#E4FBFF" opacity="0.9" />
  <rect x="304" y="304" width="104" height="18" rx="9" fill="#D4F7FF" opacity="0.8" />
  <rect x="468" y="70" width="72" height="72" rx="20" fill="url(#paint6_linear)" />
  <circle cx="120" cy="92" r="10" fill="#ffffff" opacity="0.75" />
  <circle cx="96" cy="308" r="18" fill="#F4F6FF" opacity="0.75" />
  <circle cx="516" cy="330" r="22" fill="#D7DEFF" opacity="0.52" />
  <circle cx="506" cy="114" r="14" fill="#7368FF" opacity="0.55" />
  <circle cx="524" cy="92" r="6" fill="#FFBE55" opacity="0.85" />
  <circle cx="486" cy="92" r="6" fill="#3CE8C4" opacity="0.85" />
  <circle cx="506" cy="92" r="6" fill="#5B49FF" opacity="0.85" />
</svg>
