<svg xmlns="http://www.w3.org/2000/svg" viewBox="0 0 180 44" role="img" aria-labelledby="midtransTitle midtransDesc">
  <title id="midtransTitle">Midtrans</title>
  <desc id="midtransDesc">Stylized Midtrans wordmark in blue tones</desc>
  <defs>
    <linearGradient id="midtransGradient" x1="0%" x2="100%" y1="0%" y2="0%">
      <stop offset="0%" stop-color="#00a6d6" />
      <stop offset="100%" stop-color="#0078c2" />
    </linearGradient>
  </defs>
  <rect x="2" y="2" width="176" height="40" rx="12" fill="#ffffff" />
  <g fill="url(#midtransGradient)">
    <path d="M20.9 29.8V14.2h3.9l4.5 8.2 4.5-8.2h3.9v15.6h-3.6V21l-4 7.1h-1.6l-4-7.1v8.8h-3.6z"/>
    <path d="M45.4 29.8V14.2h3.7v15.6h-3.7z"/>
    <path d="M54.1 21.9c0-4.7 3.7-8.1 8.4-8.1 2.6 0 4.7 0.9 6.1 2.4l-2.3 2.6c-0.9-0.9-2.1-1.4-3.6-1.4-2.7 0-4.6 1.9-4.6 4.5 0 2.6 1.9 4.5 4.6 4.5 1.5 0 2.8-0.5 3.6-1.4l2.3 2.6c-1.4 1.6-3.5 2.4-6.1 2.4-4.7 0-8.4-3.4-8.4-8.1z"/>
    <path d="M72.9 21.9c0-4.7 3.5-8.1 8.3-8.1 4.8 0 8.3 3.4 8.3 8.1 0 4.7-3.5 8.1-8.3 8.1-4.8 0.1-8.3-3.3-8.3-8.1zm12.8 0c0-2.6-1.8-4.5-4.5-4.5-2.7 0-4.5 1.9-4.5 4.5 0 2.6 1.8 4.5 4.5 4.5s4.5-1.9 4.5-4.5z"/>
    <path d="M101.2 29.8l-6.2-15.6h3.9l4.3 11.2 4.3-11.2h3.8l-6.2 15.6h-3.9z"/>
    <path d="M113.7 29.8V14.2h7.5c4.1 0 6.8 2.4 6.8 5.9 0 3.6-2.7 5.9-6.8 5.9h-3.7v3.8h-3.8zm10.4-9.8c0-1.5-1.1-2.4-3.1-2.4h-3.5v4.7h3.5c1.9 0 3.1-0.9 3.1-2.3z"/>
    <path d="M132.5 29.8V14.2h3.7l7.4 9.8v-9.8h3.6v15.6h-3.4l-7.7-10.2v10.2h-3.6z"/>
    <path d="M149.9 26.5l2.6-2.5c1.1 1.4 2.8 2.3 4.7 2.3 1.6 0 2.6-0.6 2.6-1.6 0-1.1-0.9-1.5-3.2-2.1-3.1-0.7-5.3-1.7-5.3-4.8 0-2.8 2.5-4.8 5.9-4.8 2.7 0 4.8 0.9 6.3 2.5l-2.4 2.6c-1-1.2-2.4-1.9-3.9-1.9-1.3 0-2.2 0.6-2.2 1.5 0 1 0.8 1.4 3.3 2 3.2 0.8 5.2 1.9 5.2 4.8 0 3.1-2.4 5-6.1 5-2.9 0.1-5.3-1.1-7.5-3z"/>
  </g>
</svg>
