<?xml version="1.0" encoding="UTF-8"?>
<svg version="1.1" xmlns="http://www.w3.org/2000/svg" width="800" height="350">
<path d="M0 0 C264 0 528 0 800 0 C800 115.5 800 231 800 350 C536 350 272 350 0 350 C0 234.5 0 119 0 0 Z " fill="#FEFEFE" transform="translate(0,0)"/>
<path d="M0 0 C2.41086837 1.64532673 3.79632353 2.96091686 4.37037659 5.88952637 C4.52268204 8.33546918 4.54020382 10.75245825 4.51757812 13.203125 C4.5245874 14.13362671 4.53159668 15.06412842 4.53881836 16.02282715 C4.55642461 19.09885493 4.54476606 22.17396285 4.53125 25.25 C4.53394415 27.38704607 4.53782593 29.52409094 4.54284668 31.66113281 C4.5487453 36.14009267 4.54016683 40.61873347 4.52148438 45.09765625 C4.49869487 50.84142452 4.51181597 56.5844452 4.53577423 62.32818604 C4.55022221 66.74110557 4.54563076 71.1538476 4.53526306 75.56677246 C4.53259302 77.68469328 4.53587524 79.80263017 4.54518127 81.92053223 C4.55533018 84.87974795 4.5398686 87.83774979 4.51757812 90.796875 C4.52567505 91.67388062 4.53377197 92.55088623 4.54211426 93.45446777 C4.45941589 99.3747846 4.45941589 99.3747846 2.12780762 102.54785156 C-0.52185027 104.35614312 -1.85431339 104.56461042 -5 104 C-7.1483678 102.35222276 -7.90876119 101.40326159 -8.51171875 98.73828125 C-8.56972656 97.93777344 -8.62773437 97.13726562 -8.6875 96.3125 C-8.75324219 95.50425781 -8.81898438 94.69601563 -8.88671875 93.86328125 C-8.94279297 92.94095703 -8.94279297 92.94095703 -9 92 C-9.61875 92.886875 -10.2375 93.77375 -10.875 94.6875 C-14.38711022 98.93213607 -19.02935717 100.85641028 -24 103 C-24.77988281 103.36867188 -25.55976563 103.73734375 -26.36328125 104.1171875 C-34.47507862 106.83313743 -44.30641558 105.7392677 -51.9296875 102.12890625 C-63.54389105 95.79587828 -69.02679211 88.05524368 -73.11328125 75.609375 C-75.90947937 64.22749367 -74.19900935 53.72717105 -68.6796875 43.5703125 C-62.79901232 34.0262659 -54.88132273 27.93108336 -44 25 C-33.40618898 23.65062072 -24.71695729 25.67377031 -15.5625 31 C-13.17434823 32.86392333 -11.11805381 34.84147382 -9 37 C-8.98541748 35.98574951 -8.97083496 34.97149902 -8.95581055 33.92651367 C-8.89783747 30.16345971 -8.82060541 26.40100479 -8.73754883 22.63842773 C-8.70429464 21.00994591 -8.67626416 19.38134869 -8.65356445 17.75268555 C-8.62002643 15.41144639 -8.56771415 13.07126514 -8.51171875 10.73046875 C-8.50532883 10.00224411 -8.4989389 9.27401947 -8.49235535 8.52372742 C-8.34594359 3.49041836 -8.34594359 3.49041836 -6.62036133 1.04418945 C-4.22791133 -0.49754757 -2.78779524 -0.47596504 0 0 Z " fill="#0A2F58" transform="translate(439,110)"/>
<path d="M0 0 C11.10609497 2.81721687 18.99140382 8.07696284 24.9921875 17.8125 C28.09532285 24.54798757 28.30741831 30.7638701 28.30078125 38.078125 C28.30506638 39.1265155 28.3093515 40.17490601 28.31376648 41.25506592 C28.31948761 43.4604012 28.32002647 45.66575534 28.31567383 47.87109375 C28.31249725 51.25292698 28.33605841 54.63389871 28.36132812 58.015625 C28.3635996 60.16145723 28.36430532 62.30729181 28.36328125 64.453125 C28.372491 65.46562317 28.38170074 66.47812134 28.39118958 67.52130127 C28.38496078 68.45947693 28.37873199 69.39765259 28.37231445 70.36425781 C28.37294388 71.18919739 28.3735733 72.01413696 28.3742218 72.86407471 C27.9103671 75.51159277 27.1232689 76.3958873 25 78 C22.5 78.375 22.5 78.375 20 78 C17.84589252 76.35703667 17.09138551 75.40391002 16.48828125 72.73828125 C16.43027344 71.93777344 16.37226562 71.13726562 16.3125 70.3125 C16.21388672 69.10013672 16.21388672 69.10013672 16.11328125 67.86328125 C16.05720703 66.94095703 16.05720703 66.94095703 16 66 C15.278125 66.7425 14.55625 67.485 13.8125 68.25 C6.55845076 75.34284815 -0.80481933 79.16071355 -11.125 79.4375 C-19.54778924 79.12109989 -27.38820361 76.75271239 -33.40625 70.55078125 C-38.89598023 64.21524956 -39.45934964 59.76739187 -39.3046875 51.484375 C-38.8084517 45.8094733 -37.33617716 42.21455406 -33.19921875 38.29296875 C-21.82268757 29.21383416 -8.96723164 29.09834966 5 30 C9.11540148 30.58477495 13.06761107 31.65723305 17 33 C15.24175662 24.50182368 12.22156224 19.19952482 5 14 C0.09363835 11.66363731 -4.94292446 11.65002433 -10.29296875 11.44140625 C-13 11 -13 11 -14.83984375 9.62109375 C-16.50682935 7.29180411 -16.41931781 5.79545208 -16 3 C-12.34833614 -2.13206813 -5.56516941 -0.63035899 0 0 Z " fill="#082D56" transform="translate(605,136)"/>
<path d="M0 0 C4.30429648 2.48324797 7.59375194 5.3933844 11 9 C13.85552763 7.7020329 15.88108294 6.30126127 18.125 4.125 C24.86672722 -1.71496753 32.20375241 -3.7229326 41.046875 -3.3828125 C49.88843565 -2.23668427 58.18953 2.20727551 63.7578125 9.2109375 C67.53092017 14.69743706 70.24004456 19.50487122 70.2746582 26.29345703 C70.28419022 27.3244754 70.29372223 28.35549377 70.30354309 29.41775513 C70.30263168 30.51997406 70.30172028 31.62219299 70.30078125 32.7578125 C70.30506638 33.89781708 70.3093515 35.03782166 70.31376648 36.21237183 C70.31950161 38.6179742 70.32001608 41.02359392 70.31567383 43.42919922 C70.31250561 47.11846213 70.33601274 50.80692946 70.36132812 54.49609375 C70.36360028 56.83333232 70.364305 59.17057305 70.36328125 61.5078125 C70.372491 62.6140799 70.38170074 63.72034729 70.39118958 64.86013794 C70.38496078 65.88485199 70.37873199 66.90956604 70.37231445 67.96533203 C70.37294388 68.86736359 70.3735733 69.76939514 70.3742218 70.69876099 C69.92475544 73.46270877 69.22854566 74.35037769 67 76 C64.5 76.375 64.5 76.375 62 76 C59.83187029 74.37612588 59.08307801 73.49271632 58.62818909 70.7948761 C58.62915085 69.93742294 58.63011261 69.07996979 58.63110352 68.1965332 C58.62422012 67.22154373 58.61733673 66.24655426 58.61024475 65.24201965 C58.61640305 64.18891098 58.62256134 63.13580231 58.62890625 62.05078125 C58.61151563 59.81835791 58.59393135 57.58593606 58.57617188 55.35351562 C58.5661197 51.83598973 58.56249705 48.31856502 58.56420898 44.80102539 C58.56062572 41.40480533 58.53322293 38.0093624 58.50390625 34.61328125 C58.51208878 33.57029373 58.5202713 32.52730621 58.52870178 31.45271301 C58.45581293 24.25683153 57.45724358 18.50185318 52.18359375 13.16015625 C51.60738281 12.79792969 51.03117187 12.43570313 50.4375 12.0625 C49.85871094 11.68222656 49.27992188 11.30195313 48.68359375 10.91015625 C43.49036721 8.10268111 37.72805611 8.47994302 32 9 C26.2915673 10.70738708 22.82659078 14.96586519 20 20 C19.0678233 22.7965301 18.86626866 24.53019019 18.84228516 27.42382812 C18.82689194 28.76036438 18.82689194 28.76036438 18.81118774 30.12390137 C18.80388641 31.08332642 18.79658508 32.04275146 18.7890625 33.03125 C18.76100477 35.05860197 18.73234039 37.08594563 18.703125 39.11328125 C18.66178132 42.31298689 18.62489711 45.5125353 18.59863281 48.71240234 C18.57110243 51.79817817 18.52524357 54.88324525 18.4765625 57.96875 C18.47330963 58.92817505 18.47005676 59.8876001 18.46670532 60.87609863 C18.44185562 62.21263489 18.44185562 62.21263489 18.41650391 63.57617188 C18.40841705 64.35988159 18.4003302 65.14359131 18.39199829 65.9510498 C17.89675452 68.53965758 17.09494481 69.4363253 15 71 C11.9375 71.3125 11.9375 71.3125 9 71 C6.59339863 68.59339863 6.74999062 68.05225732 6.74462891 64.76904297 C6.73766998 63.89408173 6.73071106 63.01912048 6.72354126 62.11764526 C6.72453827 61.1687442 6.72553528 60.21984314 6.7265625 59.2421875 C6.70625977 57.23436956 6.68540874 55.22655711 6.6640625 53.21875 C6.64152942 50.05236199 6.62502078 46.88619086 6.61914062 43.71972656 C6.60957153 40.66431338 6.57572418 37.60987948 6.5390625 34.5546875 C6.54410797 33.61793182 6.54915344 32.68117615 6.55435181 31.71603394 C6.44136982 24.10163138 4.46625501 18.98546659 -0.375 13.125 C-5.52950884 8.95230237 -10.78691495 8.47962304 -17.25 8.62890625 C-22.45459042 9.33123024 -26.0048151 11.71405008 -29.42784119 15.63592529 C-33.49184924 21.5162764 -33.6774644 26.57097691 -33.56640625 33.578125 C-33.57204086 34.66712097 -33.57767548 35.75611694 -33.58348083 36.87811279 C-33.59986816 40.33585326 -33.58442379 43.7923048 -33.5625 47.25 C-33.54591012 50.72185246 -33.53678571 54.19286873 -33.55223083 57.66473389 C-33.56151905 59.81939959 -33.55231974 61.97424242 -33.52259827 64.12872314 C-33.54914565 71.35782587 -33.54914565 71.35782587 -35.86694336 74.65917969 C-38.54331086 76.34152034 -39.89932247 76.63603642 -43 76 C-45.68914479 73.13193678 -46.37680921 71.17445303 -46.38818359 67.2824707 C-46.39764008 66.35082596 -46.40709656 65.41918121 -46.4168396 64.45930481 C-46.41076691 63.45824203 -46.40469421 62.45717926 -46.3984375 61.42578125 C-46.40130768 60.38737595 -46.40417786 59.34897064 -46.40713501 58.27909851 C-46.40917606 56.08099828 -46.40364336 53.88287991 -46.39111328 51.68481445 C-46.37514186 48.34218963 -46.39091906 45.00078897 -46.41015625 41.65820312 C-46.40817224 39.51822652 -46.40432531 37.37825067 -46.3984375 35.23828125 C-46.40451019 34.24733963 -46.41058289 33.25639801 -46.4168396 32.23542786 C-46.30892692 21.42410556 -43.19820665 13.56168954 -36 5.4375 C-26.05766526 -4.12243725 -12.26124951 -5.61474048 0 0 Z " fill="#072C55" transform="translate(241,138)"/>
<path d="M0 0 C7.17449751 4.35761237 12.55336405 9.86348246 14.80078125 18.09375 C16.19705856 27.60488937 15.97375091 36.67104839 10.55859375 44.89453125 C5.19803607 51.60118453 -0.71972211 55.24243133 -9.19921875 57.09375 C-16.85112133 57.62074054 -23.08734122 55.68959541 -29.19921875 51.09375 C-35.45031812 45.6100847 -38.60945128 38.72037413 -39.65234375 30.5390625 C-40.1065796 20.44263837 -38.04545875 12.47846111 -31.1953125 4.8671875 C-22.83473441 -2.84294713 -10.58052015 -4.89377377 0 0 Z " fill="#FBFCFD" transform="translate(416.19921875,147.90625)"/>
<path d="M0 0 C4.20436844 1.40145615 5.15062249 2.29372181 7.375 6.125 C7.97000784 9.89675385 7.9212208 13.63348607 7.89257812 17.4453125 C7.8995874 18.5889325 7.90659668 19.73255249 7.91381836 20.91082764 C7.9314223 24.69079881 7.91976621 28.47002122 7.90625 32.25 C7.9089442 34.87646631 7.91282602 37.50293164 7.91784668 40.12939453 C7.92511797 45.63387157 7.91554924 51.13813373 7.89648438 56.64257812 C7.87471632 63.00079888 7.88176808 69.35850654 7.90379 75.71671486 C7.92414865 81.84048883 7.92196911 87.96403584 7.91026306 94.08782959 C7.9075932 96.69057283 7.9108746 99.29332916 7.92018127 101.89605713 C7.93033071 105.53262099 7.91486627 109.16819727 7.89257812 112.8046875 C7.90067505 113.88224304 7.90877197 114.95979858 7.91711426 116.07000732 C7.83417905 123.3678615 7.83417905 123.3678615 5.46765137 127.27001953 C2.97279493 129.48152501 1.87600716 130.05819905 -1.4375 130.5 C-4.625 130.125 -4.625 130.125 -7.28279114 128.32055664 C-10.76232777 123.57330435 -10.33267746 119.36972275 -10.2878418 113.62109375 C-10.29820969 112.45796661 -10.30857758 111.29483948 -10.31925964 110.09646606 C-10.34636553 106.25145189 -10.33665977 102.40757535 -10.32421875 98.5625 C-10.32863279 96.56631661 -10.33306013 94.57013258 -10.33946449 92.57395458 C-10.35940381 86.30014689 -10.35386192 80.02672037 -10.33178711 73.75292969 C-10.30941717 67.28545694 -10.32703089 60.81898202 -10.36483639 54.35160351 C-10.39608549 48.79300689 -10.40398214 43.23471892 -10.39288265 37.67604542 C-10.38640029 34.35856001 -10.39087152 31.041777 -10.41220665 27.72433472 C-10.43213493 24.0251251 -10.41382711 20.32801835 -10.38549805 16.62890625 C-10.39921448 15.53264923 -10.41293091 14.43639221 -10.42706299 13.30691528 C-10.31691352 6.12192991 -10.31691352 6.12192991 -8.36600685 3.31100464 C-5.53806652 0.78141344 -3.80050526 0.13105191 0 0 Z " fill="#0557A4" transform="translate(67.625,109.875)"/>
<path d="M0 0 C6.86640458 5.54078634 12.09660729 13.25516881 13.08761597 22.15368652 C13.21181096 25.08560656 13.24283761 28.00296378 13.234375 30.9375 C13.23961685 32.00429993 13.2448587 33.07109985 13.2502594 34.17022705 C13.25665331 36.41246676 13.25537692 38.65474013 13.24682617 40.89697266 C13.23827246 44.33165552 13.26718599 47.76469801 13.29882812 51.19921875 C13.30043921 53.382812 13.29986438 55.5664082 13.296875 57.75 C13.30810898 58.77607361 13.31934296 59.80214722 13.33091736 60.85931396 C13.26149678 67.92568014 13.26149678 67.92568014 10.92993164 71.22753906 C8.27417559 72.91216725 6.88961463 73.13253099 3.80078125 72.578125 C1.66742762 70.96320821 0.88627827 70.09196262 0.44242859 67.42442322 C0.44942276 66.59076736 0.45641693 65.75711151 0.46362305 64.89819336 C0.46319504 63.94968002 0.46276703 63.00116669 0.46232605 62.02391052 C0.47475845 60.99894974 0.48719086 59.97398895 0.5 58.91796875 C0.49235243 56.74023136 0.48386159 54.56249679 0.47460938 52.38476562 C0.47681233 48.95721277 0.4881632 45.5302282 0.51586914 42.1027832 C0.53671856 38.79060201 0.52047327 35.48011789 0.5 32.16796875 C0.5185051 31.15717758 0.53701019 30.14638641 0.55607605 29.10496521 C0.48082549 21.71595805 -1.40220048 16.28820841 -6.19921875 10.578125 C-11.58557964 6.62317282 -17.03467936 4.68769082 -23.75 5.109375 C-29.18697298 6.14994399 -33.37257599 8.34145532 -36.9021759 12.66334534 C-41.11970748 19.28750558 -42.0406927 24.39766084 -41.8984375 32.16796875 C-41.90502884 33.23431046 -41.91162018 34.30065216 -41.91841125 35.39930725 C-41.93577103 38.7720663 -41.9139819 42.14295572 -41.88671875 45.515625 C-41.87542091 48.91290873 -41.87272774 52.30965015 -41.88716125 55.70692444 C-41.89455574 57.81259187 -41.88630281 59.91838499 -41.86076355 62.02391052 C-41.86119156 62.97242386 -41.86161957 63.92093719 -41.86206055 64.89819336 C-41.85506638 65.73184921 -41.8480722 66.56550507 -41.84086609 67.42442322 C-42.19921875 69.578125 -42.19921875 69.578125 -43.49763489 71.37843323 C-45.19921875 72.578125 -45.19921875 72.578125 -48.76171875 72.453125 C-52.19921875 71.578125 -52.19921875 71.578125 -54.19921875 68.578125 C-54.47337341 66.47584534 -54.47337341 66.47584534 -54.50561523 64.02172852 C-54.52160263 63.09969131 -54.53759003 62.17765411 -54.55406189 61.22767639 C-54.55942459 60.23086349 -54.56478729 59.2340506 -54.5703125 58.20703125 C-54.57934097 57.17432602 -54.58836945 56.14162079 -54.59767151 55.07762146 C-54.61219388 52.88616844 -54.62106566 50.69467186 -54.62475586 48.50317383 C-54.63656341 45.18428816 -54.68565475 41.86731631 -54.73632812 38.54882812 C-54.8380229 25.26715171 -54.67753479 13.33314764 -45 3.10546875 C-31.38258158 -8.44422887 -15.18394875 -9.81697575 0 0 Z " fill="#072C55" transform="translate(707.19921875,141.421875)"/>
<path d="M0 0 C0.77875488 0.00281982 1.55750977 0.00563965 2.35986328 0.00854492 C11.01111276 0.24742668 19.70230573 2.62940789 26.3125 8.5 C26.82069361 11.4039635 26.70713316 12.84227807 25.1875 15.375 C23.3125 16.5 23.3125 16.5 20.6875 16.4375 C17.04950155 15.42694488 13.82503276 13.99369225 10.40234375 12.421875 C5.31844153 10.17925645 -0.19903786 9.92023287 -5.6875 10.5 C-9.03911246 11.88214122 -9.03911246 11.88214122 -11.6875 13.5 C-12.3475 13.5 -13.0075 13.5 -13.6875 13.5 C-14.90198067 17.143442 -15.77211677 20.77546695 -14.6875 24.5 C-9.99844706 29.49653182 -4.8324385 31.08973157 1.625 33 C11.98919704 36.10554435 20.8843067 39.38574021 27.3125 48.5 C29.42422022 52.72344044 28.81373261 57.91400969 28.3125 62.5 C25.87997216 69.08855073 20.47788974 74.37316323 14.28515625 77.53515625 C4.25403099 81.43514166 -6.75328744 80.02925973 -16.6875 76.5 C-27.46919868 71.51754834 -27.46919868 71.51754834 -30.6875 67.5 C-30.44296876 64.15807308 -30.08206443 62.89456443 -27.6875 60.5 C-23.06135636 60.81631751 -19.62038868 62.34132776 -15.5625 64.5 C-7.90159811 68.55462492 -1.38714024 69.44246103 7.3125 68.5 C10.40627315 67.2932421 12.95421469 65.85166091 15.3125 63.5 C16.53664155 59.82757535 16.77809007 57.3577463 16.3125 53.5 C12.24815259 49.46021058 8.79760596 47.66131515 3.25 46 C1.92640228 45.58550189 0.60349629 45.16878918 -0.71875 44.75 C-1.38003906 44.54375 -2.04132812 44.3375 -2.72265625 44.125 C-20.02585118 38.62100161 -20.02585118 38.62100161 -25.3046875 31.23828125 C-27.83338363 26.23089145 -27.39331601 20.96182855 -26.6875 15.5 C-24.71236368 10.33050741 -21.37252008 6.44175679 -16.6875 3.5 C-10.950051 1.00841385 -6.2380679 -0.05093132 0 0 Z " fill="#082D56" transform="translate(766.6875,135.5)"/>
<path d="M0 0 C1.63793945 1.19067383 1.63793945 1.19067383 3 3 C3.34057617 5.4519043 3.34057617 5.4519043 3.29296875 8.32421875 C3.28330078 9.35224609 3.27363281 10.38027344 3.26367188 11.43945312 C3.23853516 12.51130859 3.21339844 13.58316406 3.1875 14.6875 C3.17396484 15.77095703 3.16042969 16.85441406 3.14648438 17.97070312 C3.11110643 20.64763405 3.06174189 23.32356838 3 26 C3.97610229 25.98428955 3.97610229 25.98428955 4.97192383 25.96826172 C7.9187433 25.92670165 10.86550111 25.90067392 13.8125 25.875 C14.83666016 25.85824219 15.86082031 25.84148437 16.91601562 25.82421875 C17.89892578 25.81777344 18.88183594 25.81132812 19.89453125 25.8046875 C20.80050049 25.79421387 21.70646973 25.78374023 22.63989258 25.77294922 C25 26 25 26 28 28 C28.3125 31 28.3125 31 28 34 C26 36 26 36 23.66162109 36.22705078 C22.70852051 36.21657715 21.75541992 36.20610352 20.7734375 36.1953125 C19.2265625 36.18564453 19.2265625 36.18564453 17.6484375 36.17578125 C16.56820313 36.15902344 15.48796875 36.14226562 14.375 36.125 C13.28703125 36.11597656 12.1990625 36.10695312 11.078125 36.09765625 C8.38519848 36.07403409 5.69270745 36.04109556 3 36 C3.06709538 42.86883903 3.15693982 49.73711316 3.26245117 56.60546875 C3.29566333 58.94101237 3.32370676 61.27663553 3.34643555 63.61230469 C3.38004901 66.97365145 3.43237003 70.33427169 3.48828125 73.6953125 C3.49786613 75.25658371 3.49786613 75.25658371 3.50764465 76.84939575 C3.6174792 82.29038298 3.89845981 86.32032319 7 91 C11.17288042 94.29536194 16.77421866 92.99292449 21.78515625 92.77734375 C25 93 25 93 26.953125 94.3046875 C28 96 28 96 27.6875 99.1875 C27.460625 100.115625 27.23375 101.04375 27 102 C19.67924561 104.85520842 10.1828942 105.52438065 2.54296875 103.27734375 C-2.86276135 100.36837788 -6.178271 95.7377344 -8 90 C-8.19253734 87.13151482 -8.28364095 84.36106677 -8.2746582 81.49365234 C-8.27976913 80.64918045 -8.28488007 79.80470856 -8.29014587 78.93464661 C-8.30401282 76.15167092 -8.30308789 73.36894356 -8.30078125 70.5859375 C-8.30466856 68.64970813 -8.3090033 66.71347961 -8.31376648 64.7772522 C-8.32122155 60.72386913 -8.32094168 56.67057319 -8.31567383 52.6171875 C-8.30986715 47.41715635 -8.32684252 42.21747999 -8.3500185 37.01750755 C-8.36472867 33.02157499 -8.36563148 29.02572855 -8.36250877 25.02977371 C-8.36302293 23.11197835 -8.36827825 21.19417829 -8.37832069 19.27640915 C-8.39062099 16.59988835 -8.38393326 13.92406769 -8.37231445 11.24755859 C-8.37995819 10.45268539 -8.38760193 9.65781219 -8.39547729 8.83885193 C-8.34411677 3.50145046 -8.34411677 3.50145046 -6.63298035 1.00796509 C-4.27023745 -0.4504495 -2.72025363 -0.40803804 0 0 Z " fill="#042A54" transform="translate(474,110)"/>
<path d="M0 0 C0.639375 -0.01289063 1.27875 -0.02578125 1.9375 -0.0390625 C5.23893347 1.02389903 6.79876735 2.99584395 9 5.625 C9.62818909 8.77416992 9.62818909 8.77416992 9.63110352 12.35546875 C9.63825882 13.01141022 9.64541412 13.66735168 9.65278625 14.34317017 C9.66962456 16.50033317 9.65030369 18.65540321 9.62890625 20.8125 C9.62973542 22.31795422 9.63219662 23.82340834 9.63621521 25.32885742 C9.63906983 28.47960758 9.62440631 31.62964555 9.59692383 34.78027344 C9.56284043 38.81228859 9.56886177 42.84303071 9.5875864 46.87510681 C9.59817174 49.98248849 9.58920489 53.08957562 9.57420158 56.19692993 C9.56903049 57.68322881 9.56948855 59.16955858 9.57574654 60.65585327 C9.58121783 62.73608172 9.56076767 64.81450836 9.53344727 66.89453125 C9.52724869 68.07635986 9.52105011 69.25818848 9.5146637 70.47583008 C8.89784025 74.25010417 7.651156 75.91945983 5 78.625 C2.33673312 79.77396404 -0.12243585 79.93331044 -3 79.625 C-5.85993478 77.86035939 -7.49782849 76.62934303 -9 73.625 C-9.11743364 71.49730405 -9.16981404 69.36591691 -9.19287109 67.23510742 C-9.20104858 66.57960403 -9.20922607 65.92410065 -9.21765137 65.24873352 C-9.24249562 63.07598789 -9.25901911 60.90330756 -9.2734375 58.73046875 C-9.27876118 57.98832941 -9.28408485 57.24619007 -9.28956985 56.48156166 C-9.31629782 52.55306659 -9.33567339 48.62460325 -9.35009766 44.69604492 C-9.36674106 40.64043293 -9.41151587 36.58563429 -9.4624691 32.5303297 C-9.49614364 29.41017231 -9.5076752 26.2902079 -9.51332474 23.16988564 C-9.52003724 21.67514139 -9.5352596 20.18040985 -9.55921555 18.68584251 C-9.59087728 16.59091531 -9.59090431 14.49818032 -9.58349609 12.40307617 C-9.59158295 11.21219894 -9.5996698 10.02132172 -9.60800171 8.7943573 C-8.65980343 3.85164233 -5.30555586 -0.10696685 0 0 Z " fill="#0AADDB" transform="translate(118,135.375)"/>
<path d="M0 0 C2.99287024 2.21849487 3.8993299 3.39268134 4.5146637 7.10484314 C4.52086227 8.32442215 4.52706085 9.54400116 4.53344727 10.80053711 C4.54206284 11.47583969 4.55067841 12.15114227 4.55955505 12.84690857 C4.58221519 15.07411279 4.57547674 17.30005865 4.56640625 19.52734375 C4.57164223 21.07906976 4.57791861 22.63079257 4.58518982 24.18251038 C4.59559428 27.43326808 4.59103284 30.68358806 4.57641602 33.93432617 C4.55923539 38.09539338 4.58271241 42.2550788 4.61790562 46.41599178 C4.63989316 49.62029632 4.6384349 52.82427097 4.6301403 56.0286274 C4.62932136 57.56239906 4.63617402 59.09619508 4.65091133 60.62989616 C4.66838273 62.77747721 4.65379871 64.92258567 4.63110352 67.07006836 C4.62966087 68.90063026 4.62966087 68.90063026 4.62818909 70.76817322 C3.82017618 74.92513454 2.28790444 76.41090469 -1 79 C-4.5 79.6875 -4.5 79.6875 -8 79 C-11.60977847 76.18749743 -12.79121645 74.42245809 -13.46072388 69.86105347 C-13.64731471 65.80347998 -13.66933005 61.77517361 -13.62890625 57.71484375 C-13.62973566 56.21081877 -13.63219777 54.70679389 -13.63621521 53.20277405 C-13.63906716 50.05799928 -13.6244307 46.91393913 -13.59692383 43.76928711 C-13.56281146 39.74514732 -13.56887408 35.72228217 -13.5875864 31.69808102 C-13.59817038 28.59499038 -13.58920662 25.49219477 -13.57420158 22.38913155 C-13.56903147 20.90562377 -13.56948735 19.42208504 -13.57574654 17.93858147 C-13.58121738 15.86325002 -13.56077025 13.78972496 -13.53344727 11.71459961 C-13.52724869 10.5357872 -13.52105011 9.35697479 -13.5146637 8.1424408 C-12.89703893 4.37133886 -11.64351421 2.70819477 -9 0 C-5.81452856 -1.59273572 -3.39809153 -0.76164121 0 0 Z " fill="#9FDCF7" transform="translate(19,136)"/>
<path d="M0 0 C2.3671875 1.86328125 2.3671875 1.86328125 4 4 C3.83849795 7.39154295 3.41703243 8.58296757 1 11 C-0.82904565 11.1504911 -2.6649931 11.2216236 -4.5 11.25 C-11.02651866 11.72009738 -16.21293319 13.4203451 -21 18 C-25.80669765 24.62337995 -26.69969215 30.23401327 -26.56640625 38.2734375 C-26.57485817 39.84177841 -26.57485817 39.84177841 -26.58348083 41.44180298 C-26.59983809 44.75333506 -26.58444154 48.06351566 -26.5625 51.375 C-26.54591545 54.70777432 -26.53676789 58.03967966 -26.55223083 61.37246704 C-26.56152846 63.43918116 -26.55228842 65.50607956 -26.52259827 67.57260132 C-26.52617844 68.50432159 -26.52975861 69.43604187 -26.53344727 70.39599609 C-26.5241494 71.62435684 -26.5241494 71.62435684 -26.5146637 72.87753296 C-27 75 -27 75 -28.83384705 76.79556274 C-31 78 -31 78 -34.125 77.875 C-37 77 -37 77 -39 74 C-39.27415466 71.9356842 -39.27415466 71.9356842 -39.30639648 69.53540039 C-39.32238388 68.63338394 -39.33837128 67.73136749 -39.35484314 66.80201721 C-39.36020584 65.82707809 -39.36556854 64.85213898 -39.37109375 63.84765625 C-39.38012222 62.83714706 -39.3891507 61.82663788 -39.39845276 60.7855072 C-39.41297448 58.64113327 -39.42184675 56.49671484 -39.42553711 54.35229492 C-39.43734247 51.10581992 -39.48643204 47.86130291 -39.53710938 44.61523438 C-39.69576194 24.25226555 -39.69576194 24.25226555 -34 15 C-33.44735474 14.10027466 -33.44735474 14.10027466 -32.88354492 13.18237305 C-25.63304117 3.22093359 -11.99881197 -2.17692731 0 0 Z " fill="#092E57" transform="translate(560,136)"/>
<path d="M0 0 C1.34239746 -0.0009668 1.34239746 -0.0009668 2.71191406 -0.00195312 C9.51623289 0.05206889 15.91243067 0.67366308 22.5625 2.1875 C22.31503962 9.8587717 20.3427026 15.1325767 15.5625 21.1875 C13.0675476 23.51005646 10.48433241 25.43676641 7.5625 27.1875 C6.69625 27.74824219 6.69625 27.74824219 5.8125 28.3203125 C2.48475266 29.60288179 -0.7962082 29.55604809 -4.3125 29.5625 C-5.00730469 29.58699219 -5.70210937 29.61148438 -6.41796875 29.63671875 C-12.50059132 29.67108385 -15.90691178 27.5435649 -20.25 23.5 C-22.39308401 19.32662588 -23.2338761 14.73590354 -21.8125 10.1875 C-17.11724143 1.1100001 -9.25933597 -0.00677595 0 0 Z " fill="#F8FBFC" transform="translate(599.4375,174.8125)"/>
<path d="M0 0 C1.6309967 1.08630371 1.6309967 1.08630371 3 3 C3.38768005 6.11193848 3.38768005 6.11193848 3.40405273 9.99414062 C3.41091599 10.70177048 3.41777924 11.40940033 3.42485046 12.13847351 C3.44315461 14.47793633 3.43927649 16.81673093 3.43359375 19.15625 C3.43815351 20.78145568 3.44345847 22.40665942 3.44947815 24.03186035 C3.45841607 27.43814935 3.45597811 30.84420397 3.44604492 34.25048828 C3.43454814 38.61895941 3.45477343 42.98662308 3.48396206 47.3549881 C3.50229327 50.71101024 3.50203792 54.06683771 3.49632454 57.42289734 C3.49617098 59.03367751 3.50224405 60.64447058 3.51461601 62.25520325 C3.52946884 64.50594004 3.51889373 66.75517026 3.50170898 69.00585938 C3.50154282 70.28698608 3.50137665 71.56811279 3.50120544 72.88806152 C3 76 3 76 1.13270569 77.94885254 C-1 79 -1 79 -3.625 78.8125 C-6 78 -6 78 -8 76 C-8.26069641 73.00831604 -8.26069641 73.00831604 -8.2746582 69.11938477 C-8.27976913 68.41190094 -8.28488007 67.70441711 -8.29014587 66.97549438 C-8.30407561 64.63071291 -8.30308258 62.28622425 -8.30078125 59.94140625 C-8.30466644 58.31477244 -8.30900074 56.68813965 -8.31376648 55.06150818 C-8.32123603 51.64928908 -8.3209322 48.23717344 -8.31567383 44.82495117 C-8.30987928 40.44874439 -8.32680602 36.07296086 -8.3500185 31.69682407 C-8.3647395 28.33653785 -8.36562977 24.97635393 -8.36250877 21.61604118 C-8.36302285 20.00247293 -8.36827671 18.38889909 -8.37832069 16.77536201 C-8.39063606 14.5199637 -8.38392364 12.26539447 -8.37231445 10.01000977 C-8.37294388 8.72586685 -8.3735733 7.44172394 -8.3742218 6.1186676 C-8 3 -8 3 -6.63298035 1.08531189 C-4.28244332 -0.47690273 -2.76020447 -0.41403067 0 0 Z " fill="#022851" transform="translate(343,135)"/>
<path d="M0 0 C-0.33 0.99 -0.66 1.98 -1 3 C-1.66 3 -2.32 3 -3 3 C-2.67 26.76 -2.34 50.52 -2 75 C-5.64155696 71.35844304 -5.37818153 70.4645453 -5.38818359 65.48071289 C-5.39344055 64.82345718 -5.39869751 64.16620148 -5.40411377 63.48902893 C-5.41731589 61.31666282 -5.40857462 59.14502981 -5.3984375 56.97265625 C-5.40045844 55.46194824 -5.40337004 53.95124117 -5.40713501 52.4405365 C-5.41155883 49.27382116 -5.40512659 46.10735966 -5.39111328 42.94067383 C-5.37403571 38.88403859 -5.38385271 34.82799942 -5.40183067 30.77138615 C-5.41267961 27.65123518 -5.40921688 24.53122512 -5.4014473 21.41106987 C-5.39944759 19.91556159 -5.40189654 18.42004048 -5.40888596 16.9245472 C-5.4165174 14.83224827 -5.40487345 12.7409092 -5.38818359 10.64868164 C-5.38579681 9.45860001 -5.38341003 8.26851837 -5.38095093 7.04237366 C-4.93763134 3.50190758 -4.07178594 0 0 0 Z " fill="#31ACCD" transform="translate(114,137)"/>
<path d="M0 0 C0.33 0 0.66 0 1 0 C1 10.89 1 21.78 1 33 C0.01 32.01 -0.98 31.02 -2 30 C-1.67 29.67 -1.34 29.34 -1 29 C-0.84141158 26.85613343 -0.74870702 24.70733162 -0.68359375 22.55859375 C-0.64169922 21.25341797 -0.59980469 19.94824219 -0.55664062 18.60351562 C-0.51682392 17.2148467 -0.47711175 15.82617478 -0.4375 14.4375 C-0.39432011 13.04490817 -0.350706 11.65232972 -0.30664062 10.25976562 C-0.20014124 6.83995199 -0.09813077 3.42006237 0 0 Z " fill="#DAEEFE" transform="translate(430,115)"/>
<path d="M0 0 C0 0.99 0 1.98 0 3 C-1.44355149 4.24670356 -2.8941849 5.48740956 -4.3984375 6.66015625 C-6.6136091 8.5133364 -8.28377185 10.68969287 -10 13 C-10.66 12.67 -11.32 12.34 -12 12 C-10.56665422 10.37133456 -9.12817021 8.74719006 -7.6875 7.125 C-6.88699219 6.22007812 -6.08648437 5.31515625 -5.26171875 4.3828125 C-3 2 -3 2 0 0 Z " fill="#163658" transform="translate(383,140)"/>
<path d="M0 0 C0.66 0.33 1.32 0.66 2 1 C1.28972656 1.62648437 0.57945312 2.25296875 -0.15234375 2.8984375 C-1.07144531 3.71570313 -1.99054687 4.53296875 -2.9375 5.375 C-4.31228516 6.59316406 -4.31228516 6.59316406 -5.71484375 7.8359375 C-8.03601395 9.78709347 -8.03601395 9.78709347 -9 12 C-9.66 11.67 -10.32 11.34 -11 11 C-7.75269769 6.03353764 -5.12779375 2.98127544 0 0 Z " fill="#DEE9F0" transform="translate(678,147)"/>
<path d="M0 0 C0.33 0.66 0.66 1.32 1 2 C-2.22791555 4.1519437 -3.28400809 4.20086443 -7 4 C-7.33 3.34 -7.66 2.68 -8 2 C-5.36 1.34 -2.72 0.68 0 0 Z " fill="#D9FAFD" transform="translate(123,213)"/>
<path d="M0 0 C0.66 0 1.32 0 2 0 C1.67 0.99 1.34 1.98 1 3 C0.34 3 -0.32 3 -1 3 C-1 5.97 -1 8.94 -1 12 C-1.33 12 -1.66 12 -2 12 C-2.05395478 10.37536158 -2.09277195 8.75021459 -2.125 7.125 C-2.14820312 6.22007812 -2.17140625 5.31515625 -2.1953125 4.3828125 C-2 2 -2 2 0 0 Z " fill="#20A9CC" transform="translate(112,137)"/>
</svg>
